<mxfile host="Electron" modified="2025-05-04T00:00:00.000Z" agent="Mozilla/5.0 (Macintosh; Intel Mac OS X 10_15_7) AppleWebKit/537.36 (KHTML, like Gecko) draw.io/22.0.3 Chrome/114.0.5735.289 Electron/25.8.4 Safari/537.36" etag="abcdefghijklmnopqrstuvwxyz" version="22.0.3" type="device">
  <diagram id="workflow_overview" name="SES業務フロー概要">
    <mxGraphModel dx="1186" dy="775" grid="1" gridSize="10" guides="1" tooltips="1" connect="1" arrows="1" fold="1" page="1" pageScale="1" pageWidth="1169" pageHeight="827" math="0" shadow="0">
      <root>
        <mxCell id="0" />
        <mxCell id="1" parent="0" />
        <mxCell id="title" value="SES業務フロー概要" style="text;html=1;strokeColor=none;fillColor=none;align=center;verticalAlign=middle;whiteSpace=wrap;rounded=0;fontSize=24;fontStyle=1" vertex="1" parent="1">
          <mxGeometry x="400" y="20" width="300" height="40" as="geometry" />
        </mxCell>

        <!-- フェーズ区分 -->
        <mxCell id="phase_1" value="案件管理フェーズ" style="swimlane;childLayout=stackLayout;resizeParent=1;resizeParentMax=0;horizontal=1;startSize=30;horizontalStack=0;fillColor=#dae8fc;strokeColor=#6c8ebf;" vertex="1" parent="1">
          <mxGeometry x="40" y="80" width="1080" height="160" as="geometry" />
        </mxCell>
        <mxCell id="phase_1_lane" value="営業担当" style="swimlane;startSize=30;horizontal=0;fillColor=#dae8fc;strokeColor=#6c8ebf;" vertex="1" parent="phase_1">
          <mxGeometry y="30" width="1080" height="130" as="geometry" />
        </mxCell>

        <!-- 案件管理フロー -->
        <mxCell id="lead_register" value="案件情報登録" style="rounded=1;whiteSpace=wrap;html=1;fillColor=#dae8fc;strokeColor=#6c8ebf;" vertex="1" parent="phase_1_lane">
          <mxGeometry x="60" y="40" width="120" height="50" as="geometry" />
        </mxCell>
        <mxCell id="lead_classify" value="案件分類・優先度付け" style="rounded=1;whiteSpace=wrap;html=1;fillColor=#dae8fc;strokeColor=#6c8ebf;" vertex="1" parent="phase_1_lane">
          <mxGeometry x="240" y="40" width="120" height="50" as="geometry" />
        </mxCell>
        <mxCell id="condition_negotiation" value="案件条件交渉" style="rounded=1;whiteSpace=wrap;html=1;fillColor=#dae8fc;strokeColor=#6c8ebf;" vertex="1" parent="phase_1_lane">
          <mxGeometry x="420" y="40" width="120" height="50" as="geometry" />
        </mxCell>
        <mxCell id="requirement_confirm" value="要件確定" style="rounded=1;whiteSpace=wrap;html=1;fillColor=#dae8fc;strokeColor=#6c8ebf;" vertex="1" parent="phase_1_lane">
          <mxGeometry x="600" y="40" width="120" height="50" as="geometry" />
        </mxCell>
        <mxCell id="case_order" value="案件受注" style="rounded=1;whiteSpace=wrap;html=1;fillColor=#d5e8d4;strokeColor=#82b366;" vertex="1" parent="phase_1_lane">
          <mxGeometry x="780" y="40" width="120" height="50" as="geometry" />
        </mxCell>
        <mxCell id="upload_documents" value="関連ドキュメント登録" style="rounded=1;whiteSpace=wrap;html=1;fillColor=#dae8fc;strokeColor=#6c8ebf;" vertex="1" parent="phase_1_lane">
          <mxGeometry x="940" y="40" width="120" height="50" as="geometry" />
        </mxCell>

        <!-- フロー接続 -->
        <mxCell id="flow_1_1" value="" style="endArrow=classic;html=1;rounded=0;exitX=1;exitY=0.5;exitDx=0;exitDy=0;entryX=0;entryY=0.5;entryDx=0;entryDy=0;" edge="1" parent="phase_1_lane" source="lead_register" target="lead_classify">
          <mxGeometry width="50" height="50" relative="1" as="geometry">
            <mxPoint x="510" y="280" as="sourcePoint" />
            <mxPoint x="560" y="230" as="targetPoint" />
          </mxGeometry>
        </mxCell>
        <mxCell id="flow_1_2" value="" style="endArrow=classic;html=1;rounded=0;exitX=1;exitY=0.5;exitDx=0;exitDy=0;entryX=0;entryY=0.5;entryDx=0;entryDy=0;" edge="1" parent="phase_1_lane" source="lead_classify" target="condition_negotiation">
          <mxGeometry width="50" height="50" relative="1" as="geometry">
            <mxPoint x="510" y="280" as="sourcePoint" />
            <mxPoint x="560" y="230" as="targetPoint" />
          </mxGeometry>
        </mxCell>
        <mxCell id="flow_1_3" value="" style="endArrow=classic;html=1;rounded=0;exitX=1;exitY=0.5;exitDx=0;exitDy=0;entryX=0;entryY=0.5;entryDx=0;entryDy=0;" edge="1" parent="phase_1_lane" source="condition_negotiation" target="requirement_confirm">
          <mxGeometry width="50" height="50" relative="1" as="geometry">
            <mxPoint x="510" y="280" as="sourcePoint" />
            <mxPoint x="560" y="230" as="targetPoint" />
          </mxGeometry>
        </mxCell>
        <mxCell id="flow_1_4" value="" style="endArrow=classic;html=1;rounded=0;exitX=1;exitY=0.5;exitDx=0;exitDy=0;entryX=0;entryY=0.5;entryDx=0;entryDy=0;" edge="1" parent="phase_1_lane" source="requirement_confirm" target="case_order">
          <mxGeometry width="50" height="50" relative="1" as="geometry">
            <mxPoint x="510" y="280" as="sourcePoint" />
            <mxPoint x="560" y="230" as="targetPoint" />
          </mxGeometry>
        </mxCell>
        <mxCell id="flow_1_5" value="" style="endArrow=classic;html=1;rounded=0;exitX=1;exitY=0.5;exitDx=0;exitDy=0;entryX=0;entryY=0.5;entryDx=0;entryDy=0;" edge="1" parent="phase_1_lane" source="case_order" target="upload_documents">
          <mxGeometry width="50" height="50" relative="1" as="geometry">
            <mxPoint x="510" y="280" as="sourcePoint" />
            <mxPoint x="560" y="230" as="targetPoint" />
          </mxGeometry>
        </mxCell>

        <!-- マッチングフェーズ -->
        <mxCell id="phase_2" value="マッチングフェーズ" style="swimlane;childLayout=stackLayout;resizeParent=1;resizeParentMax=0;horizontal=1;startSize=30;horizontalStack=0;fillColor=#ffe6cc;strokeColor=#d79b00;" vertex="1" parent="1">
          <mxGeometry x="40" y="250" width="1080" height="320" as="geometry" />
        </mxCell>
        <mxCell id="phase_2_lane_1" value="営業担当" style="swimlane;startSize=30;horizontal=0;fillColor=#ffe6cc;strokeColor=#d79b00;" vertex="1" parent="phase_2">
          <mxGeometry y="30" width="1080" height="130" as="geometry" />
        </mxCell>
        <mxCell id="requirement_input" value="案件要件入力" style="rounded=1;whiteSpace=wrap;html=1;fillColor=#ffe6cc;strokeColor=#d79b00;" vertex="1" parent="phase_2_lane_1">
          <mxGeometry x="60" y="40" width="120" height="50" as="geometry" />
        </mxCell>
        <mxCell id="matching_request" value="マッチング検索" style="rounded=1;whiteSpace=wrap;html=1;fillColor=#ffe6cc;strokeColor=#d79b00;" vertex="1" parent="phase_2_lane_1">
          <mxGeometry x="240" y="40" width="120" height="50" as="geometry" />
        </mxCell>
        <mxCell id="review_candidate" value="候補者確認" style="rounded=1;whiteSpace=wrap;html=1;fillColor=#ffe6cc;strokeColor=#d79b00;" vertex="1" parent="phase_2_lane_1">
          <mxGeometry x="420" y="40" width="120" height="50" as="geometry" />
        </mxCell>
        <mxCell id="submit_proposal" value="提案書作成" style="rounded=1;whiteSpace=wrap;html=1;fillColor=#ffe6cc;strokeColor=#d79b00;" vertex="1" parent="phase_2_lane_1">
          <mxGeometry x="600" y="40" width="120" height="50" as="geometry" />
        </mxCell>
        <mxCell id="interview_arrange" value="面談調整" style="rounded=1;whiteSpace=wrap;html=1;fillColor=#ffe6cc;strokeColor=#d79b00;" vertex="1" parent="phase_2_lane_1">
          <mxGeometry x="780" y="40" width="120" height="50" as="geometry" />
        </mxCell>
        <mxCell id="assignment_confirm" value="アサイン確定" style="rounded=1;whiteSpace=wrap;html=1;fillColor=#d5e8d4;strokeColor=#82b366;" vertex="1" parent="phase_2_lane_1">
          <mxGeometry x="940" y="40" width="120" height="50" as="geometry" />
        </mxCell>

        <mxCell id="phase_2_lane_2" value="技術者" style="swimlane;startSize=30;horizontal=0;fillColor=#ffe6cc;strokeColor=#d79b00;" vertex="1" parent="phase_2">
          <mxGeometry y="160" width="1080" height="160" as="geometry" />
        </mxCell>
        <mxCell id="profile_update" value="プロフィール更新" style="rounded=1;whiteSpace=wrap;html=1;fillColor=#ffe6cc;strokeColor=#d79b00;" vertex="1" parent="phase_2_lane_2">
          <mxGeometry x="60" y="40" width="120" height="50" as="geometry" />
        </mxCell>
        <mxCell id="skill_tag_update" value="スキルタグ登録" style="rounded=1;whiteSpace=wrap;html=1;fillColor=#ffe6cc;strokeColor=#d79b00;" vertex="1" parent="phase_2_lane_2">
          <mxGeometry x="60" y="100" width="120" height="50" as="geometry" />
        </mxCell>
        <mxCell id="proposal_review" value="案件内容確認" style="rounded=1;whiteSpace=wrap;html=1;fillColor=#ffe6cc;strokeColor=#d79b00;" vertex="1" parent="phase_2_lane_2">
          <mxGeometry x="600" y="60" width="120" height="50" as="geometry" />
        </mxCell>
        <mxCell id="interview" value="面談" style="rounded=1;whiteSpace=wrap;html=1;fillColor=#ffe6cc;strokeColor=#d79b00;" vertex="1" parent="phase_2_lane_2">
          <mxGeometry x="780" y="60" width="120" height="50" as="geometry" />
        </mxCell>

        <!-- マッチングフェーズの接続 -->
        <mxCell id="flow_2_1" value="" style="endArrow=classic;html=1;rounded=0;exitX=1;exitY=0.5;exitDx=0;exitDy=0;entryX=0;entryY=0.5;entryDx=0;entryDy=0;" edge="1" parent="phase_2" source="requirement_input" target="matching_request">
          <mxGeometry width="50" height="50" relative="1" as="geometry">
            <mxPoint x="510" y="280" as="sourcePoint" />
            <mxPoint x="560" y="230" as="targetPoint" />
          </mxGeometry>
        </mxCell>
        <mxCell id="flow_2_2" value="" style="endArrow=classic;html=1;rounded=0;exitX=1;exitY=0.5;exitDx=0;exitDy=0;entryX=0;entryY=0.5;entryDx=0;entryDy=0;" edge="1" parent="phase_2" source="matching_request" target="review_candidate">
          <mxGeometry width="50" height="50" relative="1" as="geometry">
            <mxPoint x="510" y="280" as="sourcePoint" />
            <mxPoint x="560" y="230" as="targetPoint" />
          </mxGeometry>
        </mxCell>
        <mxCell id="flow_2_3" value="" style="endArrow=classic;html=1;rounded=0;exitX=1;exitY=0.5;exitDx=0;exitDy=0;entryX=0;entryY=0.5;entryDx=0;entryDy=0;" edge="1" parent="phase_2" source="review_candidate" target="submit_proposal">
          <mxGeometry width="50" height="50" relative="1" as="geometry">
            <mxPoint x="510" y="280" as="sourcePoint" />
            <mxPoint x="560" y="230" as="targetPoint" />
          </mxGeometry>
        </mxCell>
        <mxCell id="flow_2_4" value="" style="endArrow=classic;html=1;rounded=0;exitX=1;exitY=0.5;exitDx=0;exitDy=0;entryX=0;entryY=0.5;entryDx=0;entryDy=0;" edge="1" parent="phase_2" source="submit_proposal" target="proposal_review">
          <mxGeometry width="50" height="50" relative="1" as="geometry">
            <mxPoint x="510" y="280" as="sourcePoint" />
            <mxPoint x="560" y="230" as="targetPoint" />
            <Array as="points">
              <mxPoint x="570" y="65" />
              <mxPoint x="570" y="185" />
            </Array>
          </mxGeometry>
        </mxCell>
        <mxCell id="flow_2_5" value="" style="endArrow=classic;html=1;rounded=0;exitX=1;exitY=0.5;exitDx=0;exitDy=0;entryX=0;entryY=0.5;entryDx=0;entryDy=0;" edge="1" parent="phase_2" source="proposal_review" target="interview">
          <mxGeometry width="50" height="50" relative="1" as="geometry">
            <mxPoint x="510" y="280" as="sourcePoint" />
            <mxPoint x="560" y="230" as="targetPoint" />
          </mxGeometry>
        </mxCell>
        <mxCell id="flow_2_6" value="" style="endArrow=classic;html=1;rounded=0;exitX=0.5;exitY=0;exitDx=0;exitDy=0;entryX=0.5;entryY=1;entryDx=0;entryDy=0;" edge="1" parent="phase_2" source="interview" target="interview_arrange">
          <mxGeometry width="50" height="50" relative="1" as="geometry">
            <mxPoint x="510" y="280" as="sourcePoint" />
            <mxPoint x="560" y="230" as="targetPoint" />
          </mxGeometry>
        </mxCell>
        <mxCell id="flow_2_7" value="" style="endArrow=classic;html=1;rounded=0;exitX=1;exitY=0.5;exitDx=0;exitDy=0;entryX=0;entryY=0.5;entryDx=0;entryDy=0;" edge="1" parent="phase_2" source="interview_arrange" target="assignment_confirm">
          <mxGeometry width="50" height="50" relative="1" as="geometry">
            <mxPoint x="510" y="280" as="sourcePoint" />
            <mxPoint x="560" y="230" as="targetPoint" />
          </mxGeometry>
        </mxCell>
        <mxCell id="flow_2_8" value="" style="endArrow=classic;html=1;rounded=0;exitX=1;exitY=0.5;exitDx=0;exitDy=0;entryX=0;entryY=0.5;entryDx=0;entryDy=0;" edge="1" parent="phase_2" source="profile_update" target="matching_request">
          <mxGeometry width="50" height="50" relative="1" as="geometry">
            <mxPoint x="510" y="280" as="sourcePoint" />
            <mxPoint x="560" y="230" as="targetPoint" />
            <Array as="points">
              <mxPoint x="210" y="185" />
              <mxPoint x="210" y="65" />
            </Array>
          </mxGeometry>
        </mxCell>
        <mxCell id="flow_2_9" value="" style="endArrow=classic;html=1;rounded=0;exitX=1;exitY=0.5;exitDx=0;exitDy=0;" edge="1" parent="phase_2" source="skill_tag_update">
          <mxGeometry width="50" height="50" relative="1" as="geometry">
            <mxPoint x="510" y="280" as="sourcePoint" />
            <mxPoint x="210" y="230" as="targetPoint" />
            <Array as="points">
              <mxPoint x="210" y="235" />
            </Array>
          </mxGeometry>
        </mxCell>

        <!-- 契約フェーズ -->
        <mxCell id="phase_3" value="契約フェーズ" style="swimlane;childLayout=stackLayout;resizeParent=1;resizeParentMax=0;horizontal=1;startSize=30;horizontalStack=0;fillColor=#e1d5e7;strokeColor=#9673a6;" vertex="1" parent="1">
          <mxGeometry x="40" y="580" width="1080" height="280" as="geometry" />
        </mxCell>
        <mxCell id="phase_3_lane_1" value="営業担当" style="swimlane;startSize=30;horizontal=0;fillColor=#e1d5e7;strokeColor=#9673a6;" vertex="1" parent="phase_3">
          <mxGeometry y="30" width="1080" height="130" as="geometry" />
        </mxCell>
        <mxCell id="contract_template" value="契約テンプレート選択" style="rounded=1;whiteSpace=wrap;html=1;fillColor=#e1d5e7;strokeColor=#9673a6;" vertex="1" parent="phase_3_lane_1">
          <mxGeometry x="60" y="40" width="120" height="50" as="geometry" />
        </mxCell>
        <mxCell id="contract_create" value="契約書作成" style="rounded=1;whiteSpace=wrap;html=1;fillColor=#e1d5e7;strokeColor=#9673a6;" vertex="1" parent="phase_3_lane_1">
          <mxGeometry x="240" y="40" width="120" height="50" as="geometry" />
        </mxCell>
        <mxCell id="contract_review" value="内容確認・調整" style="rounded=1;whiteSpace=wrap;html=1;fillColor=#e1d5e7;strokeColor=#9673a6;" vertex="1" parent="phase_3_lane_1">
          <mxGeometry x="420" y="40" width="120" height="50" as="geometry" />
        </mxCell>
        <mxCell id="send_signature" value="電子署名依頼送信" style="rounded=1;whiteSpace=wrap;html=1;fillColor=#e1d5e7;strokeColor=#9673a6;" vertex="1" parent="phase_3_lane_1">
          <mxGeometry x="600" y="40" width="120" height="50" as="geometry" />
        </mxCell>
        <mxCell id="contract_archive" value="契約書保管・登録" style="rounded=1;whiteSpace=wrap;html=1;fillColor=#d5e8d4;strokeColor=#82b366;" vertex="1" parent="phase_3_lane_1">
          <mxGeometry x="940" y="40" width="120" height="50" as="geometry" />
        </mxCell>

        <mxCell id="phase_3_lane_2" value="顧客/パートナー" style="swimlane;startSize=30;horizontal=0;fillColor=#e1d5e7;strokeColor=#9673a6;" vertex="1" parent="phase_3">
          <mxGeometry y="160" width="1080" height="120" as="geometry" />
        </mxCell>
        <mxCell id="contract_negotiation" value="契約条件交渉" style="rounded=1;whiteSpace=wrap;html=1;fillColor=#e1d5e7;strokeColor=#9673a6;" vertex="1" parent="phase_3_lane_2">
          <mxGeometry x="420" y="35" width="120" height="50" as="geometry" />
        </mxCell>
        <mxCell id="sign_contract" value="電子署名実施" style="rounded=1;whiteSpace=wrap;html=1;fillColor=#e1d5e7;strokeColor=#9673a6;" vertex="1" parent="phase_3_lane_2">
          <mxGeometry x="780" y="35" width="120" height="50" as="geometry" />
        </mxCell>

        <!-- 契約フェーズの接続 -->
        <mxCell id="flow_3_1" value="" style="endArrow=classic;html=1;rounded=0;exitX=1;exitY=0.5;exitDx=0;exitDy=0;entryX=0;entryY=0.5;entryDx=0;entryDy=0;" edge="1" parent="phase_3" source="contract_template" target="contract_create">
          <mxGeometry width="50" height="50" relative="1" as="geometry">
            <mxPoint x="510" y="280" as="sourcePoint" />
            <mxPoint x="560" y="230" as="targetPoint" />
          </mxGeometry>
        </mxCell>
        <mxCell id="flow_3_2" value="" style="endArrow=classic;html=1;rounded=0;exitX=1;exitY=0.5;exitDx=0;exitDy=0;entryX=0;entryY=0.5;entryDx=0;entryDy=0;" edge="1" parent="phase_3" source="contract_create" target="contract_review">
          <mxGeometry width="50" height="50" relative="1" as="geometry">
            <mxPoint x="510" y="280" as="sourcePoint" />
            <mxPoint x="560" y="230" as="targetPoint" />
          </mxGeometry>
        </mxCell>
        <mxCell id="flow_3_3" value="" style="endArrow=classic;html=1;rounded=0;exitX=0.5;exitY=1;exitDx=0;exitDy=0;entryX=0.5;entryY=0;entryDx=0;entryDy=0;" edge="1" parent="phase_3" source="contract_review" target="contract_negotiation">
          <mxGeometry width="50" height="50" relative="1" as="geometry">
            <mxPoint x="510" y="280" as="sourcePoint" />
            <mxPoint x="560" y="230" as="targetPoint" />
          </mxGeometry>
        </mxCell>
        <mxCell id="flow_3_4" value="" style="endArrow=classic;html=1;rounded=0;exitX=0.5;exitY=0;exitDx=0;exitDy=0;entryX=0;entryY=0.5;entryDx=0;entryDy=0;" edge="1" parent="phase_3" source="contract_negotiation" target="send_signature">
          <mxGeometry width="50" height="50" relative="1" as="geometry">
            <mxPoint x="510" y="280" as="sourcePoint" />
            <mxPoint x="560" y="230" as="targetPoint" />
            <Array as="points">
              <mxPoint x="480" y="120" />
              <mxPoint x="540" y="120" />
              <mxPoint x="540" y="65" />
            </Array>
          </mxGeometry>
        </mxCell>
        <mxCell id="flow_3_5" value="" style="endArrow=classic;html=1;rounded=0;exitX=1;exitY=0.5;exitDx=0;exitDy=0;entryX=0;entryY=0.5;entryDx=0;entryDy=0;" edge="1" parent="phase_3" source="send_signature" target="sign_contract">
          <mxGeometry width="50" height="50" relative="1" as="geometry">
            <mxPoint x="510" y="280" as="sourcePoint" />
            <mxPoint x="560" y="230" as="targetPoint" />
            <Array as="points">
              <mxPoint x="740" y="65" />
              <mxPoint x="740" y="195" />
            </Array>
          </mxGeometry>
        </mxCell>
        <mxCell id="flow_3_6" value="" style="endArrow=classic;html=1;rounded=0;exitX=1;exitY=0.5;exitDx=0;exitDy=0;entryX=0;entryY=0.5;entryDx=0;entryDy=0;" edge="1" parent="phase_3" source="sign_contract" target="contract_archive">
          <mxGeometry width="50" height="50" relative="1" as="geometry">
            <mxPoint x="510" y="280" as="sourcePoint" />
            <mxPoint x="560" y="230" as="targetPoint" />
            <Array as="points">
              <mxPoint x="920" y="195" />
              <mxPoint x="920" y="65" />
            </Array>
          </mxGeometry>
        </mxCell>

        <!-- 勤怠管理フェーズ -->
        <mxCell id="phase_4" value="勤怠管理フェーズ" style="swimlane;childLayout=stackLayout;resizeParent=1;resizeParentMax=0;horizontal=1;startSize=30;horizontalStack=0;fillColor=#d5e8d4;strokeColor=#82b366;" vertex="1" parent="1">
          <mxGeometry x="40" y="870" width="1080" height="320" as="geometry" />
        </mxCell>
        <mxCell id="phase_4_lane_1" value="技術者" style="swimlane;startSize=30;horizontal=0;fillColor=#d5e8d4;strokeColor=#82b366;" vertex="1" parent="phase_4">
          <mxGeometry y="30" width="1080" height="100" as="geometry" />
        </mxCell>
        <mxCell id="daily_work_input" value="日次勤怠入力" style="rounded=1;whiteSpace=wrap;html=1;fillColor=#d5e8d4;strokeColor=#82b366;" vertex="1" parent="phase_4_lane_1">
          <mxGeometry x="60" y="25" width="120" height="50" as="geometry" />
        </mxCell>
        <mxCell id="monthly_timesheet" value="月次タイムシート確認" style="rounded=1;whiteSpace=wrap;html=1;fillColor=#d5e8d4;strokeColor=#82b366;" vertex="1" parent="phase_4_lane_1">
          <mxGeometry x="240" y="25" width="120" height="50" as="geometry" />
        </mxCell>
        <mxCell id="submit_timesheet" value="承認依頼提出" style="rounded=1;whiteSpace=wrap;html=1;fillColor=#d5e8d4;strokeColor=#82b366;" vertex="1" parent="phase_4_lane_1">
          <mxGeometry x="420" y="25" width="120" height="50" as="geometry" />
        </mxCell>

        <mxCell id="phase_4_lane_2" value="現場責任者/PM" style="swimlane;startSize=30;horizontal=0;fillColor=#d5e8d4;strokeColor=#82b366;" vertex="1" parent="phase_4">
          <mxGeometry y="130" width="1080" height="100" as="geometry" />
        </mxCell>
        <mxCell id="work_verification" value="勤怠内容確認" style="rounded=1;whiteSpace=wrap;html=1;fillColor=#d5e8d4;strokeColor=#82b366;" vertex="1" parent="phase_4_lane_2">
          <mxGeometry x="420" y="25" width="120" height="50" as="geometry" />
        </mxCell>
        <mxCell id="pm_approval" value="PM承認" style="rounded=1;whiteSpace=wrap;html=1;fillColor=#d5e8d4;strokeColor=#82b366;" vertex="1" parent="phase_4_lane_2">
          <mxGeometry x="600" y="25" width="120" height="50" as="geometry" />
        </mxCell>

        <mxCell id="phase_4_lane_3" value="営業担当" style="swimlane;startSize=30;horizontal=0;fillColor=#d5e8d4;strokeColor=#82b366;" vertex="1" parent="phase_4">
          <mxGeometry y="230" width="1080" height="90" as="geometry" />
        </mxCell>
        <mxCell id="sales_verification" value="実績確認" style="rounded=1;whiteSpace=wrap;html=1;fillColor=#d5e8d4;strokeColor=#82b366;" vertex="1" parent="phase_4_lane_3">
          <mxGeometry x="780" y="20" width="120" height="50" as="geometry" />
        </mxCell>
        <mxCell id="timesheet_archive" value="タイムシート確定" style="rounded=1;whiteSpace=wrap;html=1;fillColor=#d5e8d4;strokeColor=#82b366;" vertex="1" parent="phase_4_lane_3">
          <mxGeometry x="940" y="20" width="120" height="50" as="geometry" />
        </mxCell>

        <!-- 勤怠管理フェーズの接続 -->
        <mxCell id="flow_4_1" value="" style="endArrow=classic;html=1;rounded=0;exitX=1;exitY=0.5;exitDx=0;exitDy=0;entryX=0;entryY=0.5;entryDx=0;entryDy=0;" edge="1" parent="phase_4" source="daily_work_input" target="monthly_timesheet">
          <mxGeometry width="50" height="50" relative="1" as="geometry">
            <mxPoint x="510" y="280" as="sourcePoint" />
            <mxPoint x="560" y="230" as="targetPoint" />
          </mxGeometry>
        </mxCell>
        <mxCell id="flow_4_2" value="" style="endArrow=classic;html=1;rounded=0;exitX=1;exitY=0.5;exitDx=0;exitDy=0;entryX=0;entryY=0.5;entryDx=0;entryDy=0;" edge="1" parent="phase_4" source="monthly_timesheet" target="submit_timesheet">
          <mxGeometry width="50" height="50" relative="1" as="geometry">
            <mxPoint x="510" y="280" as="sourcePoint" />
            <mxPoint x="560" y="230" as="targetPoint" />
          </mxGeometry>
        </mxCell>
        <mxCell id="flow_4_3" value="" style="endArrow=classic;html=1;rounded=0;exitX=0.5;exitY=1;exitDx=0;exitDy=0;entryX=0.5;entryY=0;entryDx=0;entryDy=0;" edge="1" parent="phase_4" source="submit_timesheet" target="work_verification">
          <mxGeometry width="50" height="50" relative="1" as="geometry">
            <mxPoint x="510" y="280" as="sourcePoint" />
            <mxPoint x="560" y="230" as="targetPoint" />
          </mxGeometry>
        </mxCell>
        <mxCell id="flow_4_4" value="" style="endArrow=classic;html=1;rounded=0;exitX=1;exitY=0.5;exitDx=0;exitDy=0;entryX=0;entryY=0.5;entryDx=0;entryDy=0;" edge="1" parent="phase_4" source="work_verification" target="pm_approval">
          <mxGeometry width="50" height="50" relative="1" as="geometry">
            <mxPoint x="510" y="280" as="sourcePoint" />
            <mxPoint x="560" y="230" as="targetPoint" />
          </mxGeometry>
        </mxCell>
        <mxCell id="flow_4_5" value="" style="endArrow=classic;html=1;rounded=0;exitX=1;exitY=0.5;exitDx=0;exitDy=0;entryX=0;entryY=0.5;entryDx=0;entryDy=0;" edge="1" parent="phase_4" source="pm_approval" target="sales_verification">
          <mxGeometry width="50" height="50" relative="1" as="geometry">
            <mxPoint x="510" y="280" as="sourcePoint" />
            <mxPoint x="560" y="230" as="targetPoint" />
            <Array as="points">
              <mxPoint x="740" y="180" />
              <mxPoint x="740" y="275" />
            </Array>
          </mxGeometry>
        </mxCell>
        <mxCell id="flow_4_6" value="" style="endArrow=classic;html=1;rounded=0;exitX=1;exitY=0.5;exitDx=0;exitDy=0;entryX=0;entryY=0.5;entryDx=0;entryDy=0;" edge="1" parent="phase_4" source="sales_verification" target="timesheet_archive">
          <mxGeometry width="50" height="50" relative="1" as="geometry">
            <mxPoint x="510" y="280" as="sourcePoint" />
            <mxPoint x="560" y="230" as="targetPoint" />
          </mxGeometry>
        </mxCell>

        <!-- 請求・支払フェーズ -->
        <mxCell id="phase_5" value="請求・支払フェーズ" style="swimlane;childLayout=stackLayout;resizeParent=1;resizeParentMax=0;horizontal=1;startSize=30;horizontalStack=0;fillColor=#fff2cc;strokeColor=#d6b656;" vertex="1" parent="1">
          <mxGeometry x="40" y="1200" width="1080" height="240" as="geometry" />
        </mxCell>
        <mxCell id="phase_5_lane_1" value="営業担当" style="swimlane;startSize=30;horizontal=0;fillColor=#fff2cc;strokeColor=#d6b656;" vertex="1" parent="phase_5">
          <mxGeometry y="30" width="1080" height="100" as="geometry" />
        </mxCell>
        <mxCell id="billing_verification" value="請求情報確認" style="rounded=1;whiteSpace=wrap;html=1;fillColor=#fff2cc;strokeColor=#d6b656;" vertex="1" parent="phase_5_lane_1">
          <mxGeometry x="60" y="25" width="120" height="50" as="geometry" />
        </mxCell>
        <mxCell id="invoice_approval" value="請求承認" style="rounded=1;whiteSpace=wrap;html=1;fillColor=#fff2cc;strokeColor=#d6b656;" vertex="1" parent="phase_5_lane_1">
          <mxGeometry x="240" y="25" width="120" height="50" as="geometry" />
        </mxCell>

        <mxCell id="phase_5_lane_2" value="経理担当" style="swimlane;startSize=30;horizontal=0;fillColor=#fff2cc;strokeColor=#d6b656;" vertex="1" parent="phase_5">
          <mxGeometry y="130" width="1080" height="110" as="geometry" />
        </mxCell>
        <mxCell id="invoice_generation" value="請求書生成" style="rounded=1;whiteSpace=wrap;html=1;fillColor=#fff2cc;strokeColor=#d6b656;" vertex="1" parent="phase_5_lane_2">
          <mxGeometry x="420" y="30" width="120" height="50" as="geometry" />
        </mxCell>
        <mxCell id="invoice_send" value="請求書送付" style="rounded=1;whiteSpace=wrap;html=1;fillColor=#fff2cc;strokeColor=#d6b656;" vertex="1" parent="phase_5_lane_2">
          <mxGeometry x="600" y="30" width="120" height="50" as="geometry" />
        </mxCell>
        <mxCell id="payment_process" value="入金処理" style="rounded=1;whiteSpace=wrap;html=1;fillColor=#fff2cc;strokeColor=#d6b656;" vertex="1" parent="phase_5_lane_2">
          <mxGeometry x="780" y="30" width="120" height="50" as="geometry" />
        </mxCell>
        <mxCell id="accounting_entry" value="会計システム連携" style="rounded=1;whiteSpace=wrap;html=1;fillColor=#fff2cc;strokeColor=#d6b656;" vertex="1" parent="phase_5_lane_2">
          <mxGeometry x="940" y="30" width="120" height="50" as="geometry" />
        </mxCell>

        <!-- 請求・支払フェーズの接続 -->
        <mxCell id="flow_5_1" value="" style="endArrow=classic;html=1;rounded=0;exitX=1;exitY=0.5;exitDx=0;exitDy=0;entryX=0;entryY=0.5;entryDx=0;entryDy=0;" edge="1" parent="phase_5" source="billing_verification" target="invoice_approval">
          <mxGeometry width="50" height="50" relative="1" as="geometry">
            <mxPoint x="510" y="280" as="sourcePoint" />
            <mxPoint x="560" y="230" as="targetPoint" />
          </mxGeometry>
        </mxCell>
        <mxCell id="flow_5_2" value="" style="endArrow=classic;html=1;rounded=0;exitX=1;exitY=0.5;exitDx=0;exitDy=0;entryX=0;entryY=0.5;entryDx=0;entryDy=0;" edge="1" parent="phase_5" source="invoice_approval" target="invoice_generation">
          <mxGeometry width="50" height="50" relative="1" as="geometry">
            <mxPoint x="510" y="280" as="sourcePoint" />
            <mxPoint x="560" y="230" as="targetPoint" />
            <Array as="points">
              <mxPoint x="380" y="80" />
              <mxPoint x="380" y="185" />
            </Array>
          </mxGeometry>
        </mxCell>
        <mxCell id="flow_5_3" value="" style="endArrow=classic;html=1;rounded=0;exitX=1;exitY=0.5;exitDx=0;exitDy=0;entryX=0;entryY=0.5;entryDx=0;entryDy=0;" edge="1" parent="phase_5" source="invoice_generation" target="invoice_send">
          <mxGeometry width="50" height="50" relative="1" as="geometry">
            <mxPoint x="510" y="280" as="sourcePoint" />
            <mxPoint x="560" y="230" as="targetPoint" />
          </mxGeometry>
        </mxCell>
        <mxCell id="flow_5_4" value="" style="endArrow=classic;html=1;rounded=0;exitX=1;exitY=0.5;exitDx=0;exitDy=0;entryX=0;entryY=0.5;entryDx=0;entryDy=0;" edge="1" parent="phase_5" source="invoice_send" target="payment_process">
          <mxGeometry width="50" height="50" relative="1" as="geometry">
            <mxPoint x="510" y="280" as="sourcePoint" />
            <mxPoint x="560" y="230" as="targetPoint" />
          </mxGeometry>
        </mxCell>
        <mxCell id="flow_5_5" value="" style="endArrow=classic;html=1;rounded=0;exitX=1;exitY=0.5;exitDx=0;exitDy=0;entryX=0;entryY=0.5;entryDx=0;entryDy=0;" edge="1" parent="phase_5" source="payment_process" target="accounting_entry">
          <mxGeometry width="50" height="50" relative="1" as="geometry">
            <mxPoint x="510" y="280" as="sourcePoint" />
            <mxPoint x="560" y="230" as="targetPoint" />
          </mxGeometry>
        </mxCell>

        <!-- ダッシュボードフェーズ -->
        <mxCell id="phase_6" value="レポーティングフェーズ" style="swimlane;childLayout=stackLayout;resizeParent=1;resizeParentMax=0;horizontal=1;startSize=30;horizontalStack=0;fillColor=#f8cecc;strokeColor=#b85450;" vertex="1" parent="1">
          <mxGeometry x="40" y="1450" width="1080" height="130" as="geometry" />
        </mxCell>
        <mxCell id="phase_6_lane_1" value="経営層" style="swimlane;startSize=30;horizontal=0;fillColor=#f8cecc;strokeColor=#b85450;" vertex="1" parent="phase_6">
          <mxGeometry y="30" width="1080" height="100" as="geometry" />
        </mxCell>
        <mxCell id="dashboard_view" value="ダッシュボード閲覧" style="rounded=1;whiteSpace=wrap;html=1;fillColor=#f8cecc;strokeColor=#b85450;" vertex="1" parent="phase_6_lane_1">
          <mxGeometry x="150" y="25" width="120" height="50" as="geometry" />
        </mxCell>
        <mxCell id="sales_report" value="売上レポート確認" style="rounded=1;whiteSpace=wrap;html=1;fillColor=#f8cecc;strokeColor=#b85450;" vertex="1" parent="phase_6_lane_1">
          <mxGeometry x="330" y="25" width="120" height="50" as="geometry" />
        </mxCell>
        <mxCell id="resource_report" value="リソース稼働状況確認" style="rounded=1;whiteSpace=wrap;html=1;fillColor=#f8cecc;strokeColor=#b85450;" vertex="1" parent="phase_6_lane_1">
          <mxGeometry x="510" y="25" width="120" height="50" as="geometry" />
        </mxCell>
        <mxCell id="project_report" value="案件進捗状況確認" style="rounded=1;whiteSpace=wrap;html=1;fillColor=#f8cecc;strokeColor=#b85450;" vertex="1" parent="phase_6_lane_1">
          <mxGeometry x="690" y="25" width="120" height="50" as="geometry" />
        </mxCell>
        <mxCell id="forecast_report" value="売上予測確認" style="rounded=1;whiteSpace=wrap;html=1;fillColor=#f8cecc;strokeColor=#b85450;" vertex="1" parent="phase_6_lane_1">
          <mxGeometry x="870" y="25" width="120" height="50" as="geometry" />
        </mxCell>

        <!-- レポーティングフェーズの接続 -->
        <mxCell id="flow_6_1" value="" style="endArrow=classic;html=1;rounded=0;exitX=1;exitY=0.5;exitDx=0;exitDy=0;entryX=0;entryY=0.5;entryDx=0;entryDy=0;" edge="1" parent="phase_6" source="dashboard_view" target="sales_report">
          <mxGeometry width="50" height="50" relative="1" as="geometry">
            <mxPoint x="510" y="280" as="sourcePoint" />
            <mxPoint x="560" y="230" as="targetPoint" />
          </mxGeometry>
        </mxCell>
        <mxCell id="flow_6_2" value="" style="endArrow=classic;html=1;rounded=0;exitX=1;exitY=0.5;exitDx=0;exitDy=0;entryX=0;entryY=0.5;entryDx=0;entryDy=0;" edge="1" parent="phase_6" source="sales_report" target="resource_report">
          <mxGeometry width="50" height="50" relative="1" as="geometry">
            <mxPoint x="510" y="280" as="sourcePoint" />
            <mxPoint x="560" y="230" as="targetPoint" />
          </mxGeometry>
        </mxCell>
        <mxCell id="flow_6_3" value="" style="endArrow=classic;html=1;rounded=0;exitX=1;exitY=0.5;exitDx=0;exitDy=0;entryX=0;entryY=0.5;entryDx=0;entryDy=0;" edge="1" parent="phase_6" source="resource_report" target="project_report">
          <mxGeometry width="50" height="50" relative="1" as="geometry">
            <mxPoint x="510" y="280" as="sourcePoint" />
            <mxPoint x="560" y="230" as="targetPoint" />
          </mxGeometry>
        </mxCell>
        <mxCell id="flow_6_4" value="" style="endArrow=classic;html=1;rounded=0;exitX=1;exitY=0.5;exitDx=0;exitDy=0;entryX=0;entryY=0.5;entryDx=0;entryDy=0;" edge="1" parent="phase_6" source="project_report" target="forecast_report">
          <mxGeometry width="50" height="50" relative="1" as="geometry">
            <mxPoint x="510" y="280" as="sourcePoint" />
            <mxPoint x="560" y="230" as="targetPoint" />
          </mxGeometry>
        </mxCell>

        <!-- フェーズ間の接続 -->
        <mxCell id="phase_connect_1" value="" style="endArrow=classic;html=1;rounded=0;entryX=0.5;entryY=0;entryDx=0;entryDy=0;exitX=0.5;exitY=1;exitDx=0;exitDy=0;" edge="1" parent="1" source="case_order" target="requirement_input">
          <mxGeometry width="50" height="50" relative="1" as="geometry">
            <mxPoint x="550" y="410" as="sourcePoint" />
            <mxPoint x="600" y="360" as="targetPoint" />
            <Array as="points">
              <mxPoint x="880" y="230" />
              <mxPoint x="160" y="230" />
            </Array>
          </mxGeometry>
        </mxCell>
        <mxCell id="phase_connect_2" value="" style="endArrow=classic;html=1;rounded=0;exitX=0.5;exitY=1;exitDx=0;exitDy=0;entryX=0.5;entryY=0;entryDx=0;entryDy=0;" edge="1" parent="1" source="assignment_confirm" target="contract_template">
          <mxGeometry width="50" height="50" relative="1" as="geometry">
            <mxPoint x="550" y="410" as="sourcePoint" />
            <mxPoint x="600" y="360" as="targetPoint" />
            <Array as="points">
              <mxPoint x="1040" y="560" />
              <mxPoint x="160" y="560" />
            </Array>
          </mxGeometry>
        </mxCell>
        <mxCell id="phase_connect_3" value="" style="endArrow=classic;html=1;rounded=0;exitX=0.5;exitY=1;exitDx=0;exitDy=0;entryX=0.5;entryY=0;entryDx=0;entryDy=0;" edge="1" parent="1" source="contract_archive" target="daily_work_input">
          <mxGeometry width="50" height="50" relative="1" as="geometry">
            <mxPoint x="550" y="810" as="sourcePoint" />
            <mxPoint x="600" y="760" as="targetPoint" />
            <Array as="points">
              <mxPoint x="1040" y="850" />
              <mxPoint x="160" y="850" />
            </Array>
          </mxGeometry>
        </mxCell>
        <mxCell id="phase_connect_4" value="" style="endArrow=classic;html=1;rounded=0;exitX=0.5;exitY=1;exitDx=0;exitDy=0;entryX=0.5;entryY=0;entryDx=0;entryDy=0;" edge="1" parent="1" source="timesheet_archive" target="billing_verification">
          <mxGeometry width="50" height="50" relative="1" as="geometry">
            <mxPoint x="550" y="1110" as="sourcePoint" />
            <mxPoint x="600" y="1060" as="targetPoint" />
            <Array as="points">
              <mxPoint x="1040" y="1180" />
              <mxPoint x="160" y="1180" />
            </Array>
          </mxGeometry>
        </mxCell>
        <mxCell id="phase_connect_5" value="" style="endArrow=classic;html=1;rounded=0;exitX=0.5;exitY=1;exitDx=0;exitDy=0;entryX=0.5;entryY=0;entryDx=0;entryDy=0;" edge="1" parent="1" source="accounting_entry" target="dashboard_view">
          <mxGeometry width="50" height="50" relative="1" as="geometry">
            <mxPoint x="550" y="1410" as="sourcePoint" />
            <mxPoint x="600" y="1360" as="targetPoint" />
            <Array as="points">
              <mxPoint x="1040" y="1430" />
              <mxPoint x="250" y="1430" />
            </Array>
          </mxGeometry>
        </mxCell>
      </root>
    </mxGraphModel>
  </diagram>
</mxfile>